<?xml version="1.0" encoding="UTF-8" standalone="no"?>
<!-- Generated by IcoMoon.io -->

<svg
   xmlns:dc="http://purl.org/dc/elements/1.1/"
   xmlns:cc="http://creativecommons.org/ns#"
   xmlns:rdf="http://www.w3.org/1999/02/22-rdf-syntax-ns#"
   xmlns:svg="http://www.w3.org/2000/svg"
   xmlns="http://www.w3.org/2000/svg"
   xmlns:sodipodi="http://sodipodi.sourceforge.net/DTD/sodipodi-0.dtd"
   xmlns:inkscape="http://www.inkscape.org/namespaces/inkscape"
   version="1.1"
   width="11.2"
   height="14"
   viewBox="0 0 11.2 14"
   id="svg2"
   inkscape:version="0.91 r13725"
   sodipodi:docname="File-Other.Svg">
  <metadata
     id="metadata11">
    <rdf:RDF>
      <cc:Work
         rdf:about="">
        <dc:format>image/svg+xml</dc:format>
        <dc:type
           rdf:resource="http://purl.org/dc/dcmitype/StillImage" />
        <dc:title />
      </cc:Work>
    </rdf:RDF>
  </metadata>
  <defs
     id="defs9" />
  <sodipodi:namedview
     pagecolor="#ffffff"
     bordercolor="#666666"
     borderopacity="1"
     objecttolerance="10"
     gridtolerance="10"
     guidetolerance="10"
     inkscape:pageopacity="0"
     inkscape:pageshadow="2"
     inkscape:window-width="1366"
     inkscape:window-height="745"
     id="namedview7"
     showgrid="false"
     inkscape:zoom="41.7193"
     inkscape:cx="7.3543108"
     inkscape:cy="7.5325668"
     inkscape:window-x="-8"
     inkscape:window-y="-8"
     inkscape:window-maximized="1"
     inkscape:current-layer="svg2" />
  <g
     id="icomoon-ignore"
     transform="translate(0,-498)" />
  <path
     d="M 1.0000156,0 C 0.44861555,0 0,0.49066 0,1.09375 l 0,11.8125 C 0,13.50934 0.44861555,14 1.0000156,14 l 9.1999684,0 C 10.751385,14 11.2,13.50934 11.2,12.90625 L 11.2,4.375 C 11.2,4.17905 11.14537,3.83701 10.672594,3.1319 10.394943,2.71775 10.007886,2.23366 9.5828359,1.76876 9.1577858,1.30386 8.7152128,0.88061 8.3365626,0.5769 7.6918867,0.05983 7.3791424,0 7.1999922,0 L 1.0000156,0 Z m 0,0.875 c 0,0 6.199427,-3e-5 6.1999766,0 l 0,3.0625 c 0,0.24161 0.1790584,0.4375 0.3999842,0.4375 l 2.7999996,0 0,8.53125 c 0,0.11856 -0.0916,0.21875 -0.199992,0.21875 l -9.1999684,0 c -0.10840029,0 -0.19999215,-0.10019 -0.19999215,-0.21875 l 0,-11.8125 c 0,-0.11856 0.0915927,-0.21875 0.19999215,-0.21875 z M 8.0000155,1.3953 C 8.2873157,1.63838 8.6334494,1.96779 9.0171486,2.38744 9.4008986,2.80716 9.7021652,3.18587 9.9244141,3.5 l -1.9243986,0 0,-2.1047 z"
     id="path5"
     inkscape:connector-curvature="0" />
  <path
     style="fill:#ffffff"
     d="m 0.86504993,13.039095 -0.0496792,-0.06316 0,-5.9790564 0,-5.9790568 0.0700653,-0.0700653 0.0700653,-0.0700653 3.11741556,0 3.1174155,0 0.00648,1.61373448 0.00648,1.6137346 0.059512,0.086838 c 0.032732,0.047761 0.098919,0.1089861 0.1470821,0.1360551 0.085628,0.048126 0.1195164,0.049217 1.5284813,0.049217 l 1.4409126,0 0,4.3103717 0,4.3103718 -0.05548,0.05212 -0.05548,0.05212 -4.6768034,0 -4.6768035,0 -0.0496792,-0.06316 z"
     id="path3361"
     inkscape:connector-curvature="0" />
  <path
     style="fill:#ffffff"
     d="m 0.86504996,13.039095 -0.0496792,-0.06316 0,-5.9870668 0,-5.9870669 0.0737482,-0.0620551 0.0737483,-0.0620551 3.11357571,0 3.1135755,0 0.00664,1.61574574 0.00664,1.6157457 0.073613,0.092097 c 0.1475518,0.1846002 0.065082,0.1759119 1.6701838,0.1759538 l 1.4321912,3.72e-5 0,4.3103717 0,4.3103718 -0.05548,0.05212 -0.05548,0.05212 -4.6768033,0 -4.67680357,0 -0.0496792,-0.06316 z"
     id="path3335"
     inkscape:connector-curvature="0" />
  <path
     style="fill:#ffffff"
     d="m 8.0062872,2.4576816 0,-1.0327122 0.1015503,0.079916 c 0.1764487,0.1388576 0.8581658,0.8352319 1.1464723,1.1711219 0.2273622,0.2648872 0.4085678,0.4908828 0.6289597,0.7844245 0.017902,0.023844 -0.1714343,0.029962 -0.9272433,0.029962 l -0.949739,0 0,-1.0327122 z"
     id="path3337"
     inkscape:connector-curvature="0" />
</svg>
