<?xml version="1.0" encoding="UTF-8" standalone="no"?>
<!-- Generated by IcoMoon.io -->

<svg
   xmlns:dc="http://purl.org/dc/elements/1.1/"
   xmlns:cc="http://creativecommons.org/ns#"
   xmlns:rdf="http://www.w3.org/1999/02/22-rdf-syntax-ns#"
   xmlns:svg="http://www.w3.org/2000/svg"
   xmlns="http://www.w3.org/2000/svg"
   xmlns:sodipodi="http://sodipodi.sourceforge.net/DTD/sodipodi-0.dtd"
   xmlns:inkscape="http://www.inkscape.org/namespaces/inkscape"
   version="1.1"
   width="11.2"
   height="14"
   viewBox="0 0 11.2 14"
   id="svg2"
   inkscape:version="0.91 r13725"
   sodipodi:docname="File-Image.Svg">
  <metadata
     id="metadata15">
    <rdf:RDF>
      <cc:Work
         rdf:about="">
        <dc:format>image/svg+xml</dc:format>
        <dc:type
           rdf:resource="http://purl.org/dc/dcmitype/StillImage" />
        <dc:title />
      </cc:Work>
    </rdf:RDF>
  </metadata>
  <defs
     id="defs13" />
  <sodipodi:namedview
     pagecolor="#ffffff"
     bordercolor="#666666"
     borderopacity="1"
     objecttolerance="10"
     gridtolerance="10"
     guidetolerance="10"
     inkscape:pageopacity="0"
     inkscape:pageshadow="2"
     inkscape:window-width="1366"
     inkscape:window-height="745"
     id="namedview11"
     showgrid="false"
     inkscape:zoom="20.85965"
     inkscape:cx="-8.7422139"
     inkscape:cy="8.8642746"
     inkscape:window-x="-8"
     inkscape:window-y="-8"
     inkscape:window-maximized="1"
     inkscape:current-layer="svg2" />
  <g
     id="icomoon-ignore"
     transform="translate(0,-498)" />
  <path
     d="M 9.5999999,12.25 1.6,12.25 1.6,10.5 3.9999999,6.125 7.2875001,10.5 9.5999999,8.75 l 0,3.5 z"
     id="path5"
     inkscape:connector-curvature="0" />
  <path
     d="M 9.5999999,6.5625 C 9.5999999,7.28738 9.0627499,7.875 8.4,7.875 7.7372249,7.875 7.2000001,7.28738 7.2000001,6.5625 7.2000001,5.83762 7.7372249,5.25 8.4,5.25 c 0.6627499,0 1.1999999,0.58762 1.1999999,1.3125 z"
     id="path7"
     inkscape:connector-curvature="0" />
  <path
     d="M 10.672575,3.1319 C 10.394925,2.71775 10.0079,2.23366 9.5828499,1.76876 9.1578001,1.30386 8.7151999,0.88058 8.33655,0.57687 7.691875,0.0598 7.37915,0 7.2000001,0 L 1,0 C 0.44860001,0 0,0.49066 0,1.09375 l 0,11.8125 C 0,13.50934 0.44860001,14 1,14 l 9.2,0 c 0.5514,0 1,-0.49066 1,-1.09375 L 11.2,4.375 C 11.2,4.17905 11.14535,3.83701 10.672575,3.1319 Z M 9.0171749,2.38746 C 9.400925,2.80719 9.702175,3.18587 9.924425,3.5 l -1.9244249,0 0,-2.10473 C 8.2873,1.63836 8.6334749,1.96782 9.0171749,2.38746 Z M 10.4,12.90625 c 0,0.11856 -0.0916,0.21875 -0.2,0.21875 l -9.2,0 c -0.1084,0 -0.19999999,-0.10019 -0.19999999,-0.21875 l 0,-11.8125 C 0.80000001,0.97519 0.89160001,0.875 1,0.875 c 0,0 6.1994499,-3e-5 6.2000001,0 l 0,3.0625 c 0,0.24161 0.1790748,0.4375 0.3999999,0.4375 l 2.8,0 0,8.53125 z"
     id="path9"
     inkscape:connector-curvature="0" />
  <path
     style="fill:#ffffff"
     d="m 0.85694924,12.991358 c -0.0691024,-0.129119 -0.0691024,-11.8620452 0,-11.9911642 0.0482881,-0.0902271 0.13424534,-0.0927273 3.18797296,-0.0927273 l 3.1383468,0 0,1.60329799 0,1.6032981 0.1156419,0.1345068 0.1156419,0.1345067 1.4903295,0.013947 1.4903297,0.013947 0,4.2438301 c 0,2.8337028 -0.01649,4.2746408 -0.04963,4.3365578 -0.04855,0.09071 -0.151878,0.09273 -4.7443186,0.09273 -4.5924405,0 -4.6957729,-0.002 -4.74431816,-0.09273 z M 9.6281806,10.492526 c 0,-1.4090048 -0.012399,-1.768949 -0.059924,-1.7396642 C 9.5352979,8.7731704 9.0153108,9.1626414 8.4127297,9.6183524 7.8101487,10.074064 7.3011842,10.437065 7.2816983,10.425022 7.2622118,10.412979 6.5255864,9.4424251 5.6447523,8.2682362 4.763918,7.0940468 4.0228296,6.1400404 3.9978891,6.1482217 3.9729485,6.1564031 3.4174502,7.138746 2.7634484,8.3312066 l -1.1890942,2.1681094 0,0.8849 0,0.884898 4.0269132,0 4.0269132,0 0,-1.776588 z M 8.8924468,7.7800866 C 9.1330179,7.6659279 9.381002,7.4068694 9.501457,7.1438794 9.6582487,6.8015549 9.6442648,6.2863434 9.4684641,5.9283307 9.0181119,5.0112043 7.8148218,5.0016433 7.3373881,5.911398 7.2272074,6.1213483 7.2084866,6.2157531 7.2079113,6.5643208 c -5.992e-4,0.362764 0.014935,0.4356626 0.141534,0.6642273 0.078214,0.1412085 0.2184366,0.319897 0.3116064,0.3970858 0.3340929,0.2767879 0.8398971,0.34023 1.2313951,0.1544527 z"
     id="path3336"
     inkscape:connector-curvature="0" />
  <path
     style="fill:#ffffff"
     d="m 7.9982395,2.460688 0,-1.0355084 0.2756518,0.2501325 c 0.4603463,0.4177281 1.5939865,1.6979241 1.5939865,1.8000552 0,0.011456 -0.4206686,0.020829 -0.9348191,0.020829 l -0.9348192,0 0,-1.0355084 z"
     id="path3338"
     inkscape:connector-curvature="0" />
  <path
     style="fill:#ffffff"
     d="m 0.85694924,12.991358 c -0.0691024,-0.129119 -0.0691024,-11.8620452 0,-11.9911642 0.0482881,-0.0902271 0.13424534,-0.0927273 3.18797296,-0.0927273 l 3.1383468,0 0,1.60329799 0,1.6032981 0.1156419,0.1345068 0.1156419,0.1345067 1.4903295,0.013947 1.4903297,0.013947 0,4.2438301 c 0,2.8337028 -0.01649,4.2746408 -0.04963,4.3365578 -0.04855,0.09071 -0.151878,0.09273 -4.7443186,0.09273 -4.5924405,0 -4.6957729,-0.002 -4.74431816,-0.09273 z M 9.6281806,10.519325 c 0,-0.9623845 -0.017929,-1.7497899 -0.039842,-1.7497899 -0.021913,0 -0.5436865,0.3778108 -1.159496,0.8395788 C 7.6534696,10.190533 7.2938538,10.433358 7.2593163,10.39882 7.2318858,10.37139 6.4968002,9.4057222 5.6257918,8.2528913 4.7547833,7.1000608 4.0225311,6.1602076 3.9985644,6.1643289 3.9745977,6.1684517 3.4193459,7.1459926 2.7646714,8.3366448 l -1.1903172,2.1648232 0,0.883823 0,0.883823 4.0269132,0 4.0269132,0 0,-1.749789 z M 8.9073291,7.7637047 C 9.1169812,7.656748 9.4209019,7.3324559 9.5084279,7.1223148 9.9294867,6.1113966 9.0723434,4.9979752 8.0941184,5.2851398 7.7608995,5.3829585 7.5304906,5.5732311 7.3494453,5.9000934 7.2230861,6.1282238 7.2072387,6.2022457 7.2072387,6.5643208 c 0,0.3620751 0.015847,0.4360969 0.1422066,0.6642273 0.1711319,0.3089649 0.4056861,0.5132263 0.6967337,0.6067504 0.2605465,0.083723 0.6143626,0.054308 0.8611501,-0.071594 z"
     id="path3340"
     inkscape:connector-curvature="0" />
  <path
     style="fill:#ffffff"
     d="m 7.9982395,2.4626719 0,-1.0335245 0.2812478,0.2475645 c 0.4078952,0.3590442 1.4105518,1.4808867 1.5403963,1.7235033 0.050571,0.094493 0.036845,0.095981 -0.8851382,0.095981 l -0.9365059,0 0,-1.0335245 z"
     id="path3342"
     inkscape:connector-curvature="0" />
</svg>
