<?xml version="1.0" encoding="UTF-8" standalone="no"?>
<!-- Generated by IcoMoon.io -->

<svg
   xmlns:dc="http://purl.org/dc/elements/1.1/"
   xmlns:cc="http://creativecommons.org/ns#"
   xmlns:rdf="http://www.w3.org/1999/02/22-rdf-syntax-ns#"
   xmlns:svg="http://www.w3.org/2000/svg"
   xmlns="http://www.w3.org/2000/svg"
   xmlns:sodipodi="http://sodipodi.sourceforge.net/DTD/sodipodi-0.dtd"
   xmlns:inkscape="http://www.inkscape.org/namespaces/inkscape"
   version="1.1"
   width="16.799999"
   height="14"
   viewBox="0 0 16.799999 14"
   id="svg2"
   inkscape:version="0.91 r13725"
   sodipodi:docname="Folder-Normal.Svg">
  <metadata
     id="metadata11">
    <rdf:RDF>
      <cc:Work
         rdf:about="">
        <dc:format>image/svg+xml</dc:format>
        <dc:type
           rdf:resource="http://purl.org/dc/dcmitype/StillImage" />
        <dc:title />
      </cc:Work>
    </rdf:RDF>
  </metadata>
  <defs
     id="defs9" />
  <sodipodi:namedview
     pagecolor="#ffffff"
     bordercolor="#666666"
     borderopacity="1"
     objecttolerance="10"
     gridtolerance="10"
     guidetolerance="10"
     inkscape:pageopacity="0"
     inkscape:pageshadow="2"
     inkscape:window-width="1366"
     inkscape:window-height="745"
     id="namedview7"
     showgrid="false"
     inkscape:zoom="13.906433"
     inkscape:cx="1.9442843"
     inkscape:cy="2.9232082"
     inkscape:window-x="-8"
     inkscape:window-y="-8"
     inkscape:window-maximized="1"
     inkscape:current-layer="svg2" />
  <g
     id="icomoon-ignore"
     transform="translate(0,-754)" />
  <path
     d="m 15.143662,12.23977 0,-8.7193 -13.4873239,0 0,8.7193 13.4873239,0 z m 0,-10.47954 C 16.050704,1.76023 16.8,2.57895 16.8,3.52047 l 0,8.7193 C 16.8,13.18129 16.050704,14 15.143662,14 L 1.6563381,14 C 0.74929576,14 0,13.18129 0,12.23977 L 0,1.76023 C 0,0.81871 0.74929576,0 1.6563381,0 L 6.7042251,0 8.4,1.76023 l 6.743662,0 z"
     id="path5"
     inkscape:connector-curvature="0" />
  <path
     style="fill:#ffffff"
     d="m 1.6710295,7.8984067 0,-4.31455 6.723507,0 6.7235075,0 0,4.31455 0,4.3145503 -6.7235075,0 -6.723507,0 0,-4.3145503 z"
     id="path3334"
     inkscape:connector-curvature="0" />
</svg>
