<?xml version="1.0" encoding="UTF-8" standalone="no"?>
<!-- Generated by IcoMoon.io -->

<svg
   xmlns:dc="http://purl.org/dc/elements/1.1/"
   xmlns:cc="http://creativecommons.org/ns#"
   xmlns:rdf="http://www.w3.org/1999/02/22-rdf-syntax-ns#"
   xmlns:svg="http://www.w3.org/2000/svg"
   xmlns="http://www.w3.org/2000/svg"
   xmlns:sodipodi="http://sodipodi.sourceforge.net/DTD/sodipodi-0.dtd"
   xmlns:inkscape="http://www.inkscape.org/namespaces/inkscape"
   version="1.1"
   width="18.667"
   height="14"
   viewBox="0 0 18.667 14"
   id="svg2"
   inkscape:version="0.91 r13725"
   sodipodi:docname="Folder-Drive.Svg">
  <metadata
     id="metadata11">
    <rdf:RDF>
      <cc:Work
         rdf:about="">
        <dc:format>image/svg+xml</dc:format>
        <dc:type
           rdf:resource="http://purl.org/dc/dcmitype/StillImage" />
        <dc:title />
      </cc:Work>
    </rdf:RDF>
  </metadata>
  <defs
     id="defs9" />
  <sodipodi:namedview
     pagecolor="#ffffff"
     bordercolor="#666666"
     borderopacity="1"
     objecttolerance="10"
     gridtolerance="10"
     guidetolerance="10"
     inkscape:pageopacity="0"
     inkscape:pageshadow="2"
     inkscape:window-width="1366"
     inkscape:window-height="745"
     id="namedview7"
     showgrid="false"
     inkscape:zoom="23.8396"
     inkscape:cx="21.226907"
     inkscape:cy="6.1328153"
     inkscape:window-x="-8"
     inkscape:window-y="-8"
     inkscape:window-maximized="1"
     inkscape:current-layer="svg2" />
  <g
     id="icomoon-ignore"
     transform="translate(0,-434)" />
  <path
     d="m 12.638889,10.5 q 0,0.36094 -0.28559,0.61797 -0.285591,0.25703 -0.686632,0.25703 -0.401042,0 -0.686632,-0.25703 -0.28559,-0.25703 -0.28559,-0.61797 0,-0.36094 0.28559,-0.61797 0.28559,-0.25703 0.686632,-0.25703 0.401041,0 0.686632,0.25703 0.28559,0.25703 0.28559,0.61797 z m 3.111111,0 q 0,0.36094 -0.28559,0.61797 -0.28559,0.25703 -0.686632,0.25703 -0.401042,0 -0.686632,-0.25703 -0.285591,-0.25703 -0.285591,-0.61797 0,-0.36094 0.285591,-0.61797 0.28559,-0.25703 0.686632,-0.25703 0.401042,0 0.686632,0.25703 Q 15.75,10.13906 15.75,10.5 Z m 1.361111,1.75 0,-3.5 q 0,-0.14219 -0.115451,-0.24609 Q 16.880208,8.4 16.722222,8.4 L 1.9444445,8.4 Q 1.7864583,8.4 1.671007,8.50391 1.5555555,8.60781 1.5555555,8.75 l 0,3.5 q 0,0.14219 0.1154515,0.24609 Q 1.7864583,12.6 1.9444445,12.6 l 14.7777775,0 q 0.157986,0 0.273438,-0.10391 0.115451,-0.1039 0.115451,-0.24609 z M 2.1631945,7 16.503472,7 14.595486,1.72813 Q 14.546876,1.58594 14.401042,1.49297 14.255208,1.4 14.08507,1.4 l -9.5034728,0 Q 4.4114583,1.4 4.265625,1.493 4.1197917,1.586 4.0711805,1.72816 Z m 16.5034725,1.75 0,3.5 q 0,0.72187 -0.571181,1.23594 Q 17.524305,14 16.722222,14 L 1.9444445,14 Q 1.1423611,14 0.57118054,13.48594 0,12.97187 0,12.25 L 0,8.75 Q 0,8.47656 0.19444445,7.92969 L 2.5885417,1.30156 Q 2.7951389,0.72187 3.3541667,0.36094 3.9131945,0 4.5815972,0 L 14.08507,0 q 0.668402,0 1.22743,0.36094 0.559028,0.36093 0.765625,0.94062 l 2.394097,6.62813 Q 18.666667,8.47656 18.666667,8.75 Z"
     id="path5"
     inkscape:connector-curvature="0" />
  <path
     style="fill:#ffffff"
     d="M 2.2730541,6.7576862 C 2.7148512,5.4971271 4.0959122,1.735893 4.1438155,1.6627833 4.1780048,1.610604 4.2567867,1.5346157 4.3188866,1.4939203 c 0.1058849,-0.069388 0.4065971,-0.07478 4.833809,-0.086671 2.5964954,-0.00697 4.8214214,-7.188e-4 4.9442794,0.0139 0.401775,0.047805 0.355058,-0.047021 1.394303,2.8302031 0.512487,1.4188577 0.940806,2.6127745 0.951819,2.6531485 0.01901,0.069702 -0.340008,0.073407 -7.1136006,0.073407 l -7.1336251,0 0.077183,-0.2202218 z"
     id="path3338"
     inkscape:connector-curvature="0" />
  <path
     style="fill:#ffffff"
     d="M 1.7918393,12.540496 C 1.7220676,12.509963 1.6418439,12.434199 1.6135645,12.372132 1.5484334,12.229185 1.5395098,8.8046856 1.6038277,8.6355168 1.6971543,8.3900493 1.2605597,8.4024368 9.4023357,8.4142503 l 7.4637183,0.01083 0.108244,0.1016928 0.108244,0.1016927 0,1.8729916 0,1.872992 -0.108243,0.101692 -0.108243,0.101693 -7.4736794,0.0091 c -6.1236481,0.0074 -7.4965948,-9.39e-4 -7.6005373,-0.04643 z m 10.2202597,-1.20083 c 0.202705,-0.05631 0.522782,-0.343831 0.581788,-0.522622 0.06199,-0.187841 0.06383,-0.437755 0.0045,-0.617395 -0.05887,-0.17838 -0.309572,-0.4278127 -0.516726,-0.5141105 -0.213475,-0.088931 -0.640989,-0.082253 -0.850774,0.01329 -0.297843,0.135648 -0.565817,0.5157773 -0.565817,0.8026283 0,0.286851 0.267974,0.66698 0.565817,0.802628 0.1866,0.08498 0.544603,0.101291 0.781165,0.03558 z m 3.203801,-0.03558 c 0.297843,-0.135648 0.565817,-0.515777 0.565817,-0.802628 0,-0.286851 -0.267974,-0.6669803 -0.565817,-0.8026283 -0.209891,-0.095592 -0.637347,-0.1022301 -0.850774,-0.013212 -0.184038,0.07676 -0.40913,0.2827491 -0.501884,0.4592908 -0.08663,0.164883 -0.0853,0.550309 0.0025,0.719376 0.0877,0.168905 0.386564,0.42545 0.551518,0.473417 0.223801,0.06508 0.61843,0.04847 0.798662,-0.03361 z"
     id="path3340"
     inkscape:connector-curvature="0" />
</svg>
