<?xml version="1.0" encoding="UTF-8" standalone="no"?>
<!-- Generated by IcoMoon.io -->

<svg
   xmlns:dc="http://purl.org/dc/elements/1.1/"
   xmlns:cc="http://creativecommons.org/ns#"
   xmlns:rdf="http://www.w3.org/1999/02/22-rdf-syntax-ns#"
   xmlns:svg="http://www.w3.org/2000/svg"
   xmlns="http://www.w3.org/2000/svg"
   xmlns:sodipodi="http://sodipodi.sourceforge.net/DTD/sodipodi-0.dtd"
   xmlns:inkscape="http://www.inkscape.org/namespaces/inkscape"
   version="1.1"
   width="11.2"
   height="14"
   viewBox="0 0 11.2 14"
   id="svg2"
   inkscape:version="0.91 r13725"
   sodipodi:docname="File-Zip.Svg">
  <metadata
     id="metadata29">
    <rdf:RDF>
      <cc:Work
         rdf:about="">
        <dc:format>image/svg+xml</dc:format>
        <dc:type
           rdf:resource="http://purl.org/dc/dcmitype/StillImage" />
        <dc:title />
      </cc:Work>
    </rdf:RDF>
  </metadata>
  <defs
     id="defs27" />
  <sodipodi:namedview
     pagecolor="#ffffff"
     bordercolor="#666666"
     borderopacity="1"
     objecttolerance="10"
     gridtolerance="10"
     guidetolerance="10"
     inkscape:pageopacity="0"
     inkscape:pageshadow="2"
     inkscape:window-width="1366"
     inkscape:window-height="745"
     id="namedview25"
     showgrid="false"
     inkscape:zoom="29.5"
     inkscape:cx="12.184788"
     inkscape:cy="6.0929734"
     inkscape:window-x="-8"
     inkscape:window-y="-8"
     inkscape:window-maximized="1"
     inkscape:current-layer="svg2" />
  <g
     id="icomoon-ignore"
     transform="translate(0,-498)" />
  <path
     d="M 10.672575,3.1319 C 10.394975,2.71775 10.0079,2.23366 9.5828499,1.76876 9.1578001,1.30386 8.7151999,0.88058 8.33655,0.57687 7.691875,0.0598 7.37915,0 7.2000001,0 L 1,0 C 0.44860001,0 0,0.49066 0,1.09375 l 0,11.8125 C 0,13.50934 0.44855,14 1,14 l 9.2,0 c 0.5514,0 1,-0.49066 1,-1.09375 l 0,-8.53125 c 0,-0.19595 -0.05465,-0.53799 -0.527425,-1.2431 l 0,0 0,0 z M 9.0171749,2.38746 C 9.400925,2.80719 9.702175,3.18587 9.924425,3.5 l -1.9244249,0 0,-2.10473 c 0.2872498,0.24309 0.6334748,0.57255 1.0171748,0.99219 l 0,0 0,0 z M 10.4,12.90625 c 0,0.11856 -0.0916,0.21875 -0.2,0.21875 l -9.2,0 c -0.1084,0 -0.19999999,-0.10019 -0.19999999,-0.21875 l 0,-11.8125 C 0.80000001,0.97519 0.89160001,0.875 1,0.875 c 0,0 6.1994499,-3e-5 6.2000001,0 l 0,3.0625 c 0,0.24161 0.179025,0.4375 0.3999999,0.4375 l 2.8,0 0,8.53125 z"
     id="path5"
     inkscape:connector-curvature="0" />
  <path
     d="m 2.4,0.875 1.5999999,0 0,0.875 L 2.4,1.75 2.4,0.875 Z"
     id="path7"
     inkscape:connector-curvature="0" />
  <path
     d="M 3.9999999,1.75 5.6,1.75 l 0,0.875 -1.6000001,0 0,-0.875 z"
     id="path9"
     inkscape:connector-curvature="0" />
  <path
     d="m 2.4,2.625 1.5999999,0 0,0.875 L 2.4,3.5 2.4,2.625 Z"
     id="path11"
     inkscape:connector-curvature="0" />
  <path
     d="M 3.9999999,3.5 5.6,3.5 l 0,0.875 -1.6000001,0 0,-0.875 z"
     id="path13"
     inkscape:connector-curvature="0" />
  <path
     d="m 2.4,4.375 1.5999999,0 0,0.875 L 2.4,5.25 2.4,4.375 Z"
     id="path15"
     inkscape:connector-curvature="0" />
  <path
     d="M 3.9999999,5.25 5.6,5.25 l 0,0.875 -1.6000001,0 0,-0.875 z"
     id="path17"
     inkscape:connector-curvature="0" />
  <path
     d="m 2.4,6.125 1.5999999,0 0,0.875 L 2.4,7 2.4,6.125 Z"
     id="path19"
     inkscape:connector-curvature="0" />
  <path
     d="M 3.9999999,7 5.6,7 l 0,0.875 -1.6000001,0 0,-0.875 z"
     id="path21"
     inkscape:connector-curvature="0" />
  <path
     d="M 2.4,11.59375 C 2.4,11.95469 2.67,12.25 3.0000001,12.25 L 5,12.25 c 0.3299999,0 0.6,-0.29531 0.6,-0.65625 l 0,-2.1875 C 5.6,9.04531 5.3299999,8.75 5,8.75 l -1.0000001,0 0,-0.875 -1.5999999,0 0,3.71875 z M 4.8,10.5 l 0,0.875 -1.6000001,0 0,-0.875 L 4.8,10.5 Z"
     id="path23"
     inkscape:connector-curvature="0" />
  <path
     style="fill:#ffffff"
     d="m 0.88494208,13.037381 -0.0832049,-0.0832 0,-5.9461219 0,-5.9461218 0.070257,-0.0893173 0.0702569,-0.0893172 0.72635324,0 0.7263532,0 0,0.44067801 0,0.4406779 0.7966102,0 0.7966101,0 0,0.4237288 0,0.4237288 -0.7966101,0 -0.7966102,0 0,0.4576272 0,0.4576271 0.7966102,0 0.7966101,0 0,0.4237288 0,0.4237288 -0.7966101,0 -0.7966102,0 0,0.440678 0,0.4406779 0.7966102,0 0.7966101,0 0,0.4237289 0,0.4237288 -0.7966101,0 -0.7966102,0 0,0.4576271 0,0.4576271 0.7966102,0 0.7966101,0 0,0.4237288 0,0.4237288 -0.7973975,0 -0.7973976,0 0.00926,1.9940349 0.00926,1.9940345 0.081689,0.119192 c 0.044929,0.06555 0.1353039,0.155951 0.2008332,0.20088 l 0.1191443,0.08169 1.1201944,0.01023 c 1.2537473,0.01145 1.3179185,0.0023 1.5089286,-0.215256 0.170659,-0.19437 0.1778655,-0.265049 0.1663092,-1.631096 L 5.5983473,9.1602029 5.4966524,9.0167829 C 5.3226026,8.7713212 5.2430622,8.7477046 4.5904016,8.7477046 l -0.5683255,0 0,-0.4237288 0,-0.4237289 0.7966102,0 0.7966102,0 0,-0.4576271 0,-0.4576271 -0.7966102,0 -0.7966102,0 0,-0.4237288 0,-0.4237288 0.7966102,0 0.7966102,0 0,-0.4576271 0,-0.4576272 -0.7966102,0 -0.7966102,0 0,-0.4237288 0,-0.4237288 0.7966102,0 0.7966102,0 0,-0.440678 0,-0.4406779 -0.7966102,0 -0.7966102,0 0,-0.4237288 0,-0.4237288 0.7966102,0 0.7966102,0 0,-0.4576272 0,-0.4576271 -0.7966102,0 -0.7966102,0 0,-0.4237288 0,-0.42372881 1.5762712,0 1.5762712,0 2.034e-4,1.53389831 c 1.017e-4,0.9416753 0.013587,1.5821363 0.03489,1.6588381 0.019086,0.068717 0.081188,0.1640558 0.1380051,0.2118643 l 0.1033041,0.086925 1.4719756,0 1.4719755,0 0,4.2896763 0,4.2896765 -0.0832,0.0832 -0.08322,0.0832 -4.6302007,0 -4.63020029,0 -0.0832049,-0.0832 z"
     id="path3343"
     inkscape:connector-curvature="0" />
  <path
     style="fill:#ffffff"
     d="m 3.2085168,10.934145 0,-0.423729 0.779661,0 0.779661,0 0,0.423729 0,0.423729 -0.779661,0 -0.779661,0 0,-0.423729 z"
     id="path3345"
     inkscape:connector-curvature="0" />
  <path
     style="fill:#ffffff"
     d="m 8.0220761,2.4742099 0,-1.0192575 0.094043,0.066965 c 0.184577,0.1314304 1.0814563,1.08082 1.4229058,1.5062137 0.1911017,0.2380835 0.3474576,0.4401819 0.3474576,0.4491077 0,0.00893 -0.4194915,0.016229 -0.9322034,0.016229 l -0.9322034,0 0,-1.0192574 z"
     id="path3347"
     inkscape:connector-curvature="0" />
</svg>
