<?xml version="1.0" encoding="UTF-8" standalone="no"?>
<!-- Generated by IcoMoon.io -->

<svg
   xmlns:dc="http://purl.org/dc/elements/1.1/"
   xmlns:cc="http://creativecommons.org/ns#"
   xmlns:rdf="http://www.w3.org/1999/02/22-rdf-syntax-ns#"
   xmlns:svg="http://www.w3.org/2000/svg"
   xmlns="http://www.w3.org/2000/svg"
   xmlns:sodipodi="http://sodipodi.sourceforge.net/DTD/sodipodi-0.dtd"
   xmlns:inkscape="http://www.inkscape.org/namespaces/inkscape"
   version="1.1"
   width="11.2"
   height="14"
   viewBox="0 0 11.2 14"
   id="svg2"
   inkscape:version="0.91 r13725"
   sodipodi:docname="File-Text.Svg">
  <metadata
     id="metadata17">
    <rdf:RDF>
      <cc:Work
         rdf:about="">
        <dc:format>image/svg+xml</dc:format>
        <dc:type
           rdf:resource="http://purl.org/dc/dcmitype/StillImage" />
        <dc:title />
      </cc:Work>
    </rdf:RDF>
  </metadata>
  <defs
     id="defs15" />
  <sodipodi:namedview
     pagecolor="#ffffff"
     bordercolor="#666666"
     borderopacity="1"
     objecttolerance="10"
     gridtolerance="10"
     guidetolerance="10"
     inkscape:pageopacity="0"
     inkscape:pageshadow="2"
     inkscape:window-width="1366"
     inkscape:window-height="745"
     id="namedview13"
     showgrid="false"
     inkscape:zoom="14.75"
     inkscape:cx="33.222166"
     inkscape:cy="7.261577"
     inkscape:window-x="-8"
     inkscape:window-y="-8"
     inkscape:window-maximized="1"
     inkscape:current-layer="svg2" />
  <g
     id="icomoon-ignore"
     transform="translate(0,-498)" />
  <path
     d="M 10.672575,3.1319 C 10.394925,2.71775 10.0079,2.23366 9.5828499,1.76876 9.1578001,1.30386 8.7151999,0.88058 8.33655,0.57687 7.691875,0.0598 7.37915,0 7.2000001,0 L 1,0 C 0.44860001,0 0,0.49066 0,1.09375 l 0,11.8125 C 0,13.50934 0.44860001,14 1,14 l 9.2,0 c 0.5514,0 1,-0.49066 1,-1.09375 L 11.2,4.375 C 11.2,4.17905 11.14535,3.83701 10.672575,3.1319 Z M 9.0171749,2.38746 C 9.400925,2.80719 9.702175,3.18587 9.924425,3.5 l -1.9244249,0 0,-2.10473 C 8.2873,1.63836 8.6334749,1.96782 9.0171749,2.38746 Z M 10.4,12.90625 c 0,0.11856 -0.0916,0.21875 -0.2,0.21875 l -9.2,0 c -0.1084,0 -0.19999999,-0.10019 -0.19999999,-0.21875 l 0,-11.8125 C 0.80000001,0.97519 0.89160001,0.875 1,0.875 c 0,0 6.1994499,-3e-5 6.2000001,0 l 0,3.0625 c 0,0.24161 0.1790748,0.4375 0.3999999,0.4375 l 2.8,0 0,8.53125 z"
     id="path5"
     inkscape:connector-curvature="0" />
  <path
     d="m 8.4,11.375 -5.6,0 C 2.5791,11.375 2.4,11.17914 2.4,10.9375 2.4,10.69586 2.5791,10.5 2.8,10.5 l 5.6,0 c 0.220925,0 0.3999999,0.19586 0.3999999,0.4375 0,0.24164 -0.1790749,0.4375 -0.3999999,0.4375 z"
     id="path7"
     inkscape:connector-curvature="0" />
  <path
     d="m 8.4,9.625 -5.6,0 C 2.5791,9.625 2.4,9.42914 2.4,9.1875 2.4,8.94586 2.5791,8.75 2.8,8.75 l 5.6,0 c 0.220925,0 0.3999999,0.19586 0.3999999,0.4375 C 8.7999999,9.42914 8.620925,9.625 8.4,9.625 Z"
     id="path9"
     inkscape:connector-curvature="0" />
  <path
     d="m 8.4,7.875 -5.6,0 C 2.5791,7.875 2.4,7.67914 2.4,7.4375 2.4,7.19586 2.5791,7 2.8,7 L 8.4,7 C 8.620925,7 8.7999999,7.19586 8.7999999,7.4375 8.7999999,7.67914 8.620925,7.875 8.4,7.875 Z"
     id="path11"
     inkscape:connector-curvature="0" />
  <path
     style="fill:#ffffff"
     d="m 0.8741434,13.052547 c -0.0248588,-0.02486 -0.0451977,-2.734011 -0.0451977,-6.0203387 0,-4.5569366 0.0193099,-5.9944511 0.0813559,-6.05649716 C 0.97120999,0.91480274 1.7720718,0.8943552 4.0967423,0.8943552 l 3.1050847,0 0,1.6571726 c 0,1.6356198 0.00196,1.6585452 0.1506784,1.7627119 0.1249142,0.087493 0.3973338,0.1055392 1.5932206,0.1055392 l 1.442542,0 0,4.2576272 c 0,3.2210919 -0.01981,4.2774329 -0.08136,4.3389829 -0.0617,0.0617 -1.2057758,0.08136 -4.7344635,0.08136 -2.5592091,0 -4.67344634,-0.02034 -4.6983051,-0.0452 z m 7.819209,-1.78531 C 8.8884385,11.07215 8.868867,10.766107 8.6503111,10.594191 8.4759016,10.457001 8.4029423,10.453677 5.5655654,10.453677 c -2.8157158,0 -2.910329,0.0042 -3.0417045,0.135593 -0.1899916,0.189992 -0.1818941,0.570051 0.015085,0.708021 0.1307407,0.09157 0.5389122,0.105539 3.0847457,0.105539 2.8436722,0 2.938245,-0.0042 3.0696606,-0.135593 z M 8.7234067,9.4894393 C 8.8647362,9.2876637 8.856444,9.0789423 8.6993911,8.8849166 L 8.5698365,8.7248637 5.7332895,8.7052813 C 4.1731885,8.6945105 2.8302316,8.702183 2.7489407,8.7223322 2.4036288,8.8079199 2.2638051,9.2546237 2.5004703,9.5161355 2.6059528,9.6326922 2.7925038,9.6401179 5.61527,9.6401179 l 3.002597,0 0.1055397,-0.1506786 z m 0,-1.7627119 c 0.058046,-0.082872 0.105539,-0.2133727 0.105539,-0.2899993 0,-0.076627 -0.047493,-0.2071265 -0.105539,-0.2899996 L 8.617867,6.9960501 l -2.9908171,0 c -2.6878465,0 -3.0033768,0.011366 -3.1147998,0.1122026 -0.1544837,0.1398058 -0.1607063,0.4806091 -0.01178,0.645171 0.1054825,0.1165566 0.2920335,0.1239824 3.1147997,0.1239824 l 3.002597,0 0.1055397,-0.1506787 z"
     id="path3337"
     inkscape:connector-curvature="0" />
  <path
     style="fill:#ffffff"
     d="m 0.8741434,13.052547 c -0.0248588,-0.02486 -0.0451977,-2.734011 -0.0451977,-6.0203387 0,-4.5569366 0.0193099,-5.9944511 0.0813559,-6.05649716 C 0.97120999,0.91480274 1.7720718,0.8943552 4.0967423,0.8943552 l 3.1050847,0 0,1.6141607 c 0,1.2861413 0.019533,1.640904 0.096122,1.7457627 0.089283,0.1222386 0.2026402,0.1330691 1.5932206,0.1522208 l 1.4970979,0.020619 0,4.2539576 c 0,3.2182381 -0.01981,4.2737651 -0.08136,4.3353131 -0.0617,0.0617 -1.2057758,0.08136 -4.7344635,0.08136 -2.5592091,0 -4.67344634,-0.02034 -4.6983051,-0.0452 z m 7.8165677,-1.798094 c 0.1853498,-0.19895 0.174278,-0.431913 -0.030248,-0.636439 l -0.1684833,-0.168483 -2.955668,0.01902 c -2.8358244,0.01825 -2.9595683,0.02436 -3.051856,0.150625 -0.1372037,0.187718 -0.1188344,0.489819 0.039405,0.648059 0.1314334,0.131433 0.2259887,0.135593 3.0821048,0.135593 2.9438274,0 2.9466376,-1.36e-4 3.0847454,-0.148377 z M 8.7234067,9.4894393 C 8.8647497,9.287644 8.8564413,9.0789261 8.6993423,8.8849166 l -0.1296027,-0.1600529 -2.9480251,0 c -2.8038726,0 -2.955003,0.00631 -3.0907358,0.1291518 C 2.3499325,9.0178603 2.3465476,9.3272115 2.5238609,9.5045247 2.65534,9.636004 2.7498496,9.6401179 5.6386606,9.6401179 l 2.9792064,0 0.1055397,-0.1506786 z m 0,-1.7627119 c 0.058046,-0.082872 0.105539,-0.2133727 0.105539,-0.2899993 0,-0.076627 -0.047493,-0.2071265 -0.105539,-0.2899996 L 8.617867,6.9960501 l -2.9641212,0 c -3.3110018,0 -3.2654781,-0.00614 -3.2654781,0.440678 0,0.4468217 -0.045524,0.440678 3.2654781,0.440678 l 2.9641212,0 0.1055397,-0.1506787 z"
     id="path3338"
     inkscape:connector-curvature="0" />
  <path
     style="fill:#ffffff"
     d="m 8.0153863,2.4851902 c 0,-0.9175348 0.00818,-0.981055 0.1186441,-0.9218536 0.1434054,0.076852 0.820025,0.7838632 1.2413628,1.2971203 C 9.9349686,3.5421094 9.9861,3.4706264 8.9389419,3.4706264 l -0.9235556,0 0,-0.9854362 z"
     id="path3340"
     inkscape:connector-curvature="0" />
</svg>
