<?xml version="1.0" encoding="UTF-8" standalone="no"?>
<!-- Generated by IcoMoon.io -->

<svg
   xmlns:dc="http://purl.org/dc/elements/1.1/"
   xmlns:cc="http://creativecommons.org/ns#"
   xmlns:rdf="http://www.w3.org/1999/02/22-rdf-syntax-ns#"
   xmlns:svg="http://www.w3.org/2000/svg"
   xmlns="http://www.w3.org/2000/svg"
   xmlns:sodipodi="http://sodipodi.sourceforge.net/DTD/sodipodi-0.dtd"
   xmlns:inkscape="http://www.inkscape.org/namespaces/inkscape"
   version="1.1"
   width="11.2"
   height="14"
   viewBox="0 0 11.2 14"
   id="svg2"
   inkscape:version="0.91 r13725"
   sodipodi:docname="File-Music.Svg">
  <metadata
     id="metadata13">
    <rdf:RDF>
      <cc:Work
         rdf:about="">
        <dc:format>image/svg+xml</dc:format>
        <dc:type
           rdf:resource="http://purl.org/dc/dcmitype/StillImage" />
        <dc:title />
      </cc:Work>
    </rdf:RDF>
  </metadata>
  <defs
     id="defs11" />
  <sodipodi:namedview
     pagecolor="#ffffff"
     bordercolor="#666666"
     borderopacity="1"
     objecttolerance="10"
     gridtolerance="10"
     guidetolerance="10"
     inkscape:pageopacity="0"
     inkscape:pageshadow="2"
     inkscape:window-width="1366"
     inkscape:window-height="745"
     id="namedview9"
     showgrid="false"
     inkscape:zoom="29.5"
     inkscape:cx="15.505307"
     inkscape:cy="6.4613689"
     inkscape:window-x="-8"
     inkscape:window-y="-8"
     inkscape:window-maximized="1"
     inkscape:current-layer="svg2" />
  <g
     id="icomoon-ignore"
     transform="translate(0,-498)" />
  <path
     d="M 10.672575,3.1319 C 10.39495,2.71775 10.0079,2.23366 9.5828499,1.76876 9.1578001,1.30386 8.7151999,0.88058 8.33655,0.57687 7.691875,0.0598 7.37915,0 7.2000001,0 L 1,0 C 0.44860001,0 0,0.49066 0,1.09375 l 0,11.8125 C 0,13.50934 0.44857501,14 1,14 l 9.2,0 c 0.5514,0 1,-0.49066 1,-1.09375 l 0,-8.53125 c 0,-0.19595 -0.05465,-0.53799 -0.527425,-1.2431 l 0,0 z M 9.0171749,2.38746 C 9.400925,2.80719 9.702175,3.18587 9.924425,3.5 l -1.9244249,0 0,-2.10473 c 0.287275,0.24309 0.6334748,0.57255 1.0171748,0.99219 l 0,0 z M 10.4,12.90625 c 0,0.11856 -0.0916,0.21875 -0.2,0.21875 l -9.2,0 c -0.1084,0 -0.19999999,-0.10019 -0.19999999,-0.21875 l 0,-11.8125 C 0.80000001,0.97519 0.89160001,0.875 1,0.875 c 0,0 6.1994499,-3e-5 6.2000001,0 l 0,3.0625 C 7.2000001,4.17911 7.37905,4.375 7.6,4.375 l 2.8,0 0,8.53125 z"
     id="path5"
     inkscape:connector-curvature="0" />
  <path
     d="m 8.6535999,5.34915 c -0.092675,-0.0831 -0.21455,-0.1164 -0.3320248,-0.0907 l -4.0000002,0.875 c -0.1869748,0.0409 -0.321575,0.22047 -0.321575,0.42902 l 0,3.23854 C 3.7646,9.68929 3.491525,9.625 3.1999999,9.625 2.31635,9.625 1.6,10.21262 1.6,10.9375 1.6,11.66238 2.31635,12.25 3.1999999,12.25 4.0836499,12.25 4.8,11.66238 4.8,10.9375 l 0,-3.14133 3.2000001,-0.70003 0,1.82987 C 7.7645999,8.81426 7.4915249,8.74997 7.2000001,8.74997 6.31635,8.74997 5.6,9.33759 5.6,10.06247 c 0,0.72489 0.71635,1.3125 1.6000001,1.3125 0.88365,0 1.5999998,-0.58761 1.5999998,-1.3125 l 0,-4.37497 c 0,-0.13106 -0.053725,-0.25523 -0.1464,-0.33835 z"
     id="path7"
     inkscape:connector-curvature="0" />
  <path
     style="fill:#ffffff"
     d="m 0.943797,13.089935 c -0.0422203,-0.01696 -0.0919232,-0.07071 -0.11045073,-0.119442 -0.0219726,-0.05779 -0.0306418,-2.149154 -0.0249307,-6.0143029 0.00853,-5.7730767 0.010419,-5.9275383 0.0733317,-5.99705346 l 0.0645758,-0.071353 3.11339029,0 3.1133902,0 2.034e-4,1.53389826 c 1.017e-4,0.9416754 0.013587,1.5821364 0.03489,1.6588381 0.019086,0.068717 0.081188,0.1640558 0.1380051,0.2118643 l 0.1033041,0.086925 1.4719756,0 1.4719754,0 0,4.2896762 0,4.2896767 -0.0832,0.0832 -0.08322,0.0832 -4.6032362,-0.0021 C 2.9437783,13.121672 0.98848939,13.10789 0.943797,13.089935 Z M 3.6815782,12.202624 C 4.0778323,12.109651 4.4943243,11.799007 4.6856887,11.4537 l 0.097584,-0.176086 0.00965,-1.737288 C 4.7982239,8.5848175 4.8134782,7.8029765 4.8268172,7.8029016 4.8401562,7.8028338 5.5451375,7.6503457 6.3934426,7.4640548 7.2417477,7.277764 7.9472562,7.1252833 7.9612392,7.125208 c 0.013983,-7.49e-5 0.025424,0.3964739 0.025424,0.8812197 0,0.4847458 -0.00381,0.881159 -0.00847,0.8809187 -0.00466,-2.373e-4 -0.1076272,-0.031583 -0.2288136,-0.069651 -0.2558437,-0.080366 -0.7317607,-0.094575 -1,-0.029856 -0.4638244,0.1119092 -0.8685614,0.4174573 -1.0528905,0.794859 -0.084622,0.1732586 -0.099362,0.2436702 -0.099495,0.4752891 -1.356e-4,0.238951 0.013319,0.299273 0.1110492,0.497791 0.1952824,0.396674 0.5942281,0.67995 1.1121013,0.789662 0.2959628,0.0627 0.4779244,0.06261 0.7766929,-4e-4 0.4846454,-0.102205 0.8910112,-0.387574 1.0898905,-0.765373 l 0.09655,-0.18341 0,-2.4688784 0,-2.4688787 L 8.673365,5.3602945 C 8.6129158,5.3062809 8.5288131,5.2533928 8.4864707,5.2427657 8.3991301,5.2208443 4.4024165,6.0813799 4.2321938,6.1587572 4.1714728,6.1863589 4.0914451,6.2587152 4.0543543,6.3195494 3.9894456,6.426008 3.9869116,6.4929067 3.9867896,8.1032748 3.986671,9.6834847 3.9833688,9.7750243 3.9273409,9.7517426 3.5555642,9.5972552 3.032345,9.5731942 2.6462723,9.6928308 2.199516,9.8312718 1.8444642,10.126629 1.6751816,10.500653 c -0.1135226,0.250825 -0.1073605,0.642485 0.014234,0.904698 0.3008897,0.648858 1.1597565,0.992581 1.9921628,0.797273 z"
     id="path3335"
     inkscape:connector-curvature="0" />
  <path
     style="fill:#ffffff"
     d="m 8.0205612,2.481004 c 0,-0.5593221 0.012708,-1.0169492 0.02824,-1.0169492 0.056871,0 1.1861408,1.1804188 1.4755407,1.5423729 0.1639752,0.2050848 0.3127335,0.3995763 0.3305739,0.4322034 0.030537,0.055846 -0.022252,0.059322 -0.9009589,0.059322 l -0.9333961,0 0,-1.0169491 z"
     id="path3337"
     inkscape:connector-curvature="0" />
  <path
     style="fill:#ffffff"
     d="m 0.943797,13.089935 c -0.0422203,-0.01696 -0.0919232,-0.07071 -0.11045073,-0.119442 -0.0219726,-0.05779 -0.0306418,-2.149154 -0.0249307,-6.0143029 0.00853,-5.7730767 0.010419,-5.9275383 0.0733317,-5.99705346 l 0.0645758,-0.071353 3.11339029,0 3.1133902,0 2.034e-4,1.51694916 c 1.356e-4,0.9940619 0.012978,1.5630135 0.037291,1.6505863 0.020406,0.0735 0.082951,0.1764666 0.1389892,0.2288137 l 0.1018864,0.095176 1.4709915,0 1.4709914,0 0,4.2896762 0,4.2896767 -0.0832,0.0832 -0.08322,0.0832 -4.6032362,-0.0021 C 2.9437783,13.121672 0.98848939,13.10789 0.943797,13.089935 Z m 2.7702317,-0.903011 c 0.4082437,-0.112287 0.7843444,-0.394973 0.9689881,-0.728315 l 0.1002563,-0.180995 0.00965,-1.737288 c 0.0053,-0.9555085 0.017747,-1.7372881 0.027648,-1.7372881 0.0099,0 0.7161899,-0.1525424 1.5695292,-0.3389831 0.8533397,-0.1864406 1.5616603,-0.338983 1.5740464,-0.338983 0.012386,0 0.02252,0.398242 0.02252,0.8849827 0,0.8290024 -0.00375,0.8835278 -0.059322,0.8619854 C 7.5954616,8.7433819 7.0138595,8.7125704 6.6962053,8.8068182 6.1550578,8.9673765 5.779727,9.3023453 5.6427846,9.7469572 5.3239934,10.781979 6.5977728,11.693929 7.7976568,11.289718 8.1924697,11.156715 8.5197446,10.892142 8.6931999,10.56575 l 0.090073,-0.169492 0,-2.4625381 c 0,-2.4145932 -0.00132,-2.4640186 -0.067797,-2.5385766 C 8.5666951,5.2282748 8.4803012,5.2204291 7.9656748,5.3270504 6.524908,5.6255511 4.3263802,6.1207758 4.2239511,6.1698843 3.9843904,6.2847386 3.9867746,6.2651375 3.9867156,8.120224 3.9866648,9.6842291 3.9833617,9.7750328 3.9273409,9.7519497 3.5646504,9.602505 3.0263821,9.5786365 2.6436109,9.6950253 1.9170734,9.915943 1.4818676,10.537363 1.6148442,11.163978 c 0.1694082,0.798287 1.1603384,1.281174 2.0991845,1.022946 z"
     id="path3339"
     inkscape:connector-curvature="0" />
  <path
     style="fill:#ffffff"
     d="m 8.0205612,2.481004 c 0,-0.5593221 0.01162,-1.0169492 0.025821,-1.0169492 0.037227,0 1.0438372,1.0242721 1.2825809,1.3050848 0.2542178,0.2990135 0.4261223,0.5160228 0.5034867,0.6355932 l 0.060315,0.09322 -0.936102,0 -0.9361021,0 0,-1.0169491 z"
     id="path3341"
     inkscape:connector-curvature="0" />
</svg>
