<?xml version="1.0" encoding="UTF-8" standalone="no"?>
<!-- Generated by IcoMoon.io -->

<svg
   xmlns:dc="http://purl.org/dc/elements/1.1/"
   xmlns:cc="http://creativecommons.org/ns#"
   xmlns:rdf="http://www.w3.org/1999/02/22-rdf-syntax-ns#"
   xmlns:svg="http://www.w3.org/2000/svg"
   xmlns="http://www.w3.org/2000/svg"
   xmlns:sodipodi="http://sodipodi.sourceforge.net/DTD/sodipodi-0.dtd"
   xmlns:inkscape="http://www.inkscape.org/namespaces/inkscape"
   version="1.1"
   width="11.2"
   height="14"
   viewBox="0 0 11.2 14"
   id="svg2"
   inkscape:version="0.91 r13725"
   sodipodi:docname="File-Video.Svg">
  <metadata
     id="metadata15">
    <rdf:RDF>
      <cc:Work
         rdf:about="">
        <dc:format>image/svg+xml</dc:format>
        <dc:type
           rdf:resource="http://purl.org/dc/dcmitype/StillImage" />
        <dc:title />
      </cc:Work>
    </rdf:RDF>
  </metadata>
  <defs
     id="defs13" />
  <sodipodi:namedview
     pagecolor="#ffffff"
     bordercolor="#666666"
     borderopacity="1"
     objecttolerance="10"
     gridtolerance="10"
     guidetolerance="10"
     inkscape:pageopacity="0"
     inkscape:pageshadow="2"
     inkscape:window-width="1366"
     inkscape:window-height="745"
     id="namedview11"
     showgrid="false"
     inkscape:zoom="20.85965"
     inkscape:cx="7.4369139"
     inkscape:cy="1.1776747"
     inkscape:window-x="-8"
     inkscape:window-y="-8"
     inkscape:window-maximized="1"
     inkscape:current-layer="svg2" />
  <g
     id="icomoon-ignore"
     transform="translate(0,-498)" />
  <path
     d="M 10.672575,3.1319 C 10.394975,2.71775 10.0079,2.23366 9.5828499,1.76876 9.1578001,1.30386 8.7151999,0.88058 8.33655,0.57687 7.691875,0.0598 7.379125,0 7.2000001,0 L 1,0 C 0.44860001,0 0,0.49066 0,1.09375 l 0,11.8125 C 0,13.50934 0.448525,14 1,14 l 9.2,0 c 0.5514,0 1,-0.49066 1,-1.09375 l 0,-8.53125 c 0,-0.19595 -0.05465,-0.53799 -0.527425,-1.2431 l 0,0 0,0 z M 9.0171749,2.38746 C 9.400925,2.80719 9.702175,3.18587 9.924425,3.5 l -1.9244249,0 0,-2.10473 c 0.2872498,0.24309 0.6334748,0.57255 1.0171748,0.99219 l 0,0 0,0 z M 10.4,12.90625 c 0,0.11856 -0.0916,0.21875 -0.2,0.21875 l -9.2,0 c -0.1084,0 -0.19999999,-0.10019 -0.19999999,-0.21875 l 0,-11.8125 C 0.80000001,0.97519 0.89160001,0.875 1,0.875 c 0,0 6.1994499,-3e-5 6.2000001,0 l 0,3.0625 c 0,0.24161 0.1789998,0.4375 0.3999999,0.4375 l 2.8,0 0,8.53125 z"
     id="path5"
     inkscape:connector-curvature="0" />
  <path
     d="m 2.4,7 4,0 0,4.375 -4,0 L 2.4,7 Z"
     id="path7"
     inkscape:connector-curvature="0" />
  <path
     d="M 6.4,8.75 8.7999999,7 l 0,4.375 L 6.4,9.625 Z"
     id="path9"
     inkscape:connector-curvature="0" />
  <path
     style="fill:#ffffff"
     d="m 0.888386,13.042847 c -0.0441312,-0.04413 -0.0575273,-1.455919 -0.0575273,-6.0626533 0,-5.8880275 0.001808,-6.006093 0.0927273,-6.05475143 C 0.98473518,0.89271618 2.0614217,0.87581613 4.08522,0.87581613 l 3.0689068,0 0.014354,1.62614637 0.014354,1.6261464 0.11622,0.1236433 0.1162206,0.1236433 1.4777659,0 1.4777666,0 0,4.3049619 c 0,3.2843846 -0.01364,4.3185996 -0.05753,4.3624896 -0.08343,0.08343 -9.34146143,0.08343 -9.424894,0 z m 5.5622664,-2.505469 0.013091,-0.837177 1.1482542,0.837177 c 0.6315398,0.460447 1.1654654,0.837176 1.1865012,0.837176 0.021036,0 0.038247,-0.992346 0.038247,-2.2052142 0,-1.212868 -0.0057,-2.2052144 -0.012661,-2.2052144 -0.00696,0 -0.5408887,0.3846095 -1.1865012,0.8546883 L 6.4637432,8.6735016 6.4506768,7.8188137 6.4376105,6.9641254 l -2.0363448,0 -2.0363449,0 0,2.2052144 0,2.2052142 2.0363202,0 2.0363201,0 0.013091,-0.837176 z"
     id="path3336"
     inkscape:connector-curvature="0" />
  <path
     style="fill:#ffffff"
     d="m 8.0217751,2.4466504 0,-1.0178955 0.5311385,0.5265163 c 0.4503466,0.4464274 1.2905603,1.4144733 1.2905603,1.4869092 0,0.012301 -0.4098822,0.022366 -0.9108494,0.022366 l -0.9108494,0 0,-1.0178956 z"
     id="path3338"
     inkscape:connector-curvature="0" />
  <path
     style="fill:#ffffff"
     d="m 0.888386,13.042847 c -0.0441312,-0.04413 -0.0575273,-1.455919 -0.0575273,-6.0626533 0,-5.8880275 0.001808,-6.006093 0.0927273,-6.05475143 0.0611497,-0.0327263 1.13800096,-0.0496261 3.16216586,-0.0496261 l 3.0694388,0 0.013822,1.60253657 c 0.013316,1.5437993 0.017525,1.6074944 0.1148519,1.7378048 l 0.1010295,0.1352682 1.4929569,0.012668 1.4929572,0.012668 0,4.3042792 c 0,3.2838534 -0.01364,4.3179174 -0.05753,4.3618064 -0.08343,0.08343 -9.34146143,0.08343 -9.424894,0 z M 6.4506524,10.53582 6.4637432,9.6970864 7.6142898,10.535123 c 0.6328007,0.46092 1.1667262,0.838351 1.1865013,0.838734 0.019775,3.84e-4 0.035955,-0.980863 0.035955,-2.1805475 0,-1.2226783 -0.018526,-2.1812447 -0.042155,-2.1812447 -0.023185,0 -0.557111,0.3748644 -1.1865012,0.8330322 L 6.4637432,8.6781297 6.4506768,7.8211273 6.4376105,6.9641254 l -2.0363448,0 -2.0363449,0 0,2.2052144 0,2.2052142 2.0363202,0 2.0363201,0 0.013091,-0.838734 z"
     id="path3340"
     inkscape:connector-curvature="0" />
  <path
     style="fill:#ffffff"
     d="m 8.0217751,2.4466504 0,-1.0178955 0.5311385,0.5265163 c 0.4503466,0.4464274 1.2905603,1.4144733 1.2905603,1.4869092 0,0.012301 -0.4098822,0.022366 -0.9108494,0.022366 l -0.9108494,0 0,-1.0178956 z"
     id="path3342"
     inkscape:connector-curvature="0" />
</svg>
