<?xml version="1.0" encoding="UTF-8" standalone="no"?>
<svg
   xmlns:dc="http://purl.org/dc/elements/1.1/"
   xmlns:cc="http://creativecommons.org/ns#"
   xmlns:rdf="http://www.w3.org/1999/02/22-rdf-syntax-ns#"
   xmlns:svg="http://www.w3.org/2000/svg"
   xmlns="http://www.w3.org/2000/svg"
   xmlns:sodipodi="http://sodipodi.sourceforge.net/DTD/sodipodi-0.dtd"
   xmlns:inkscape="http://www.inkscape.org/namespaces/inkscape"
   version="1.1"
   id="svg2"
   viewBox="0 0 8 8"
   height="8"
   width="8"
   inkscape:version="0.91 r13725"
   sodipodi:docname="Icon.svg">
  <sodipodi:namedview
     pagecolor="#ffffff"
     bordercolor="#666666"
     borderopacity="1"
     objecttolerance="10"
     gridtolerance="10"
     guidetolerance="10"
     inkscape:pageopacity="0"
     inkscape:pageshadow="2"
     inkscape:window-width="1366"
     inkscape:window-height="745"
     id="namedview7"
     showgrid="true"
     inkscape:zoom="32"
     inkscape:cx="2.2626814"
     inkscape:cy="0.65451198"
     inkscape:window-x="-8"
     inkscape:window-y="-8"
     inkscape:window-maximized="1"
     inkscape:current-layer="svg2"
     borderlayer="false"
     inkscape:showpageshadow="true"
     showborder="true"
     showguides="true">
    <inkscape:grid
       type="xygrid"
       id="grid7140" />
  </sodipodi:namedview>
  <defs
     id="defs4">
    <marker
       inkscape:stockid="Arrow1Lstart"
       orient="auto"
       refY="0.0"
       refX="0.0"
       id="Arrow1Lstart"
       style="overflow:visible"
       inkscape:isstock="true">
      <path
         id="path8012"
         d="M 0.0,0.0 L 5.0,-5.0 L -12.5,0.0 L 5.0,5.0 L 0.0,0.0 z "
         style="fill-rule:evenodd;stroke:#000000;stroke-width:1.0pt"
         transform="scale(0.8) translate(12.5,0)" />
    </marker>
  </defs>
  <metadata
     id="metadata7">
    <rdf:RDF>
      <cc:Work
         rdf:about="">
        <dc:format>image/svg+xml</dc:format>
        <dc:type
           rdf:resource="http://purl.org/dc/dcmitype/StillImage" />
        <dc:title></dc:title>
      </cc:Work>
    </rdf:RDF>
  </metadata>
  <g
     transform="translate(0 0)"
     id="g8926">
    <path
       style="fill:#a5cd9f;fill-opacity:1"
       d="M 0,0 1,0 1,1 0,1"
       id="path8928" />
    <path
       style="fill:#13a90f;fill-opacity:1"
       d="M 1,0 2,0 1.75,0.75 1,1"
       id="path8930" />
    <path
       style="fill:#4cb341;fill-opacity:1"
       d="m 2,0 1,0 0.25,0.75 -0.5,0.5 -0.5,0 -0.5,-0.5"
       id="path8932" />
    <path
       style="fill:#9dc79d;fill-opacity:1"
       d="M 3,0 4,0 4,1 3.25,0.75"
       id="path8934" />
    <path
       style="fill:#d2d2d2;fill-opacity:1"
       d="M 4,0 5,0 5,1 4,1"
       id="path8936" />
    <path
       style="fill:#85dc74;fill-opacity:1"
       d="M 5,0 6,0 6.25,0.75 5.75,1.25 5,1"
       id="path8938" />
    <path
       style="fill:#7dcc6e;fill-opacity:1"
       d="M 6,0 7,0 7,1 6.25,0.75"
       id="path8940" />
    <path
       style="fill:#4d904a;fill-opacity:1"
       d="M 7,0 8,0 8,1 7,1"
       id="path8942" />
    <path
       style="fill:#299326;fill-opacity:1"
       d="M 0,1 1,1 1,2 0,2"
       id="path8944" />
    <path
       style="fill:#5fc559;fill-opacity:1"
       d="M 1,1 1.75,0.75 2.25,1.25 2,2 1,2"
       id="path8946" />
    <path
       style="fill:#41b736;fill-opacity:1"
       d="m 2.25,1.25 0.5,0 L 3,2 2,2"
       id="path8948" />
    <path
       style="fill:#6ec965;fill-opacity:1"
       d="M 2.75,1.25 3.25,0.75 4,1 4,2 3,2"
       id="path8950" />
    <path
       style="fill:#4c9148;fill-opacity:1"
       d="M 4,1 5,1 5,2 4,2"
       id="path8952" />
    <path
       style="fill:#70dc5d;fill-opacity:1"
       d="M 5,1 5.75,1.25 6,2 5,2"
       id="path8954" />
    <path
       style="fill:#65bc55;fill-opacity:1"
       d="M 5.75,1.25 6.25,0.75 7,1 7,2 6,2"
       id="path8956" />
    <path
       style="fill:#d2d2d2;fill-opacity:1"
       d="M 7,1 8,1 8,2 7,2"
       id="path8958" />
    <path
       style="fill:#47c536;fill-opacity:1"
       d="M 0,2 1,2 1,3 0,3"
       id="path8960" />
    <path
       style="fill:#1f5417;fill-opacity:1"
       d="M 1,2 2,2 2,3 1,3"
       id="path8962" />
    <path
       style="fill:#385831;fill-opacity:1"
       d="M 2,2 3,2 3,3 2,3"
       id="path8964" />
    <path
       style="fill:#93d78c;fill-opacity:1"
       d="M 3,2 4,2 4,3 3,3"
       id="path8966" />
    <path
       style="fill:#579856;fill-opacity:1"
       d="M 4,2 5,2 5,3 4,3"
       id="path8968" />
    <path
       style="fill:#1e4e18;fill-opacity:1"
       d="M 5,2 6,2 6.25,2.75 5.75,3.25 5,3"
       id="path8970" />
    <path
       style="fill:#385831;fill-opacity:1"
       d="M 6,2 7,2 7,3 6.25,2.75"
       id="path8972" />
    <path
       style="fill:#dcdcdc;fill-opacity:1"
       d="M 7,2 8,2 8,3 7,3"
       id="path8974" />
    <path
       style="fill:#4ccb3d;fill-opacity:1"
       d="M 0,3 1,3 1,4 0,4"
       id="path8976" />
    <path
       style="fill:#1e4e18;fill-opacity:1"
       d="M 1,3 2,3 2,4 1,4"
       id="path8978" />
    <path
       style="fill:#000000;fill-opacity:1"
       d="M 2,3 3,3 3,4 2,4"
       id="path8980" />
    <path
       style="fill:#67cf55;fill-opacity:1"
       d="M 3,3 4,3 4,4 3,4"
       id="path8982" />
    <path
       style="fill:#47b239;fill-opacity:1"
       d="M 4,3 5,3 5,4 4,4"
       id="path8984" />
    <path
       style="fill:#000000;fill-opacity:1"
       d="M 5,3 5.75,3.25 6,4 5,4"
       id="path8986" />
    <path
       style="fill:#173a14;fill-opacity:1"
       d="M 5.75,3.25 6.25,2.75 7,3 7,4 6,4"
       id="path8988" />
    <path
       style="fill:#78ce67;fill-opacity:1"
       d="M 7,3 8,3 8,4 7,4"
       id="path8990" />
    <path
       style="fill:#89d282;fill-opacity:1"
       d="M 0,4 1,4 1,5 0,5"
       id="path8992" />
    <path
       style="fill:#65b757;fill-opacity:1"
       d="M 1,4 2,4 2,5 1,5"
       id="path8994" />
    <path
       style="fill:#94d78e;fill-opacity:1"
       d="M 2,4 3,4 3,5 2,5"
       id="path8996" />
    <path
       style="fill:#1c4f14;fill-opacity:1"
       d="M 3,4 4,4 4,5 3,5"
       id="path8998" />
    <path
       style="fill:#1d4c16;fill-opacity:1"
       d="M 4,4 5,4 5.25,4.75 4.75,5.25 4,5"
       id="path9000" />
    <path
       style="fill:#c3d2c0;fill-opacity:1"
       d="M 5,4 6,4 6,5 5.25,4.75"
       id="path9002" />
    <path
       style="fill:#488c45;fill-opacity:1"
       d="M 6,4 7,4 6.75,4.75 6,5"
       id="path9004" />
    <path
       style="fill:#5ed04c;fill-opacity:1"
       d="M 7,4 8,4 8,5 7.25,5.25 6.75,4.75"
       id="path9006" />
    <path
       style="fill:#a4d29a;fill-opacity:1"
       d="M 0,5 1,5 1,6 0,6"
       id="path9008" />
    <path
       style="fill:#51974e;fill-opacity:1"
       d="M 1,5 2,5 2,6 1,6"
       id="path9010" />
    <path
       style="fill:#385831;fill-opacity:1"
       d="M 2,5 3,5 2.75,5.75 2,6"
       id="path9012" />
    <path
       style="fill:#000000;fill-opacity:1"
       d="M 3,5 4,5 4,6 3.25,6.25 2.75,5.75"
       id="path9014" />
    <path
       style="fill:#000000;fill-opacity:1"
       d="m 4,5 0.75,0.25 0.5,0.5 -0.5,0.5 L 4,6"
       id="path9016" />
    <path
       style="fill:#1f5518;fill-opacity:1"
       d="M 4.75,5.25 5.25,4.75 6,5 6,6 5.25,5.75"
       id="path9018" />
    <path
       style="fill:#67d755;fill-opacity:1"
       d="M 6,5 6.75,4.75 7.25,5.25 7,6 6,6"
       id="path9020" />
    <path
       style="fill:#bfd2bb;fill-opacity:1"
       d="M 7.25,5.25 8,5 8,6 7,6"
       id="path9022" />
    <path
       style="fill:#c2e2bb;fill-opacity:1"
       d="M 0,6 1,6 1,7 0,7"
       id="path9024" />
    <path
       style="fill:#67a166;fill-opacity:1"
       d="M 1,6 2,6 2,7 1,7"
       id="path9026" />
    <path
       style="fill:#000000;fill-opacity:1"
       d="M 2,6 2.75,5.75 3.25,6.25 3,7 2,7"
       id="path9028" />
    <path
       style="fill:#000000;fill-opacity:1"
       d="M 3.25,6.25 4,6 4,7 3,7"
       id="path9030" />
    <path
       style="fill:#000000;fill-opacity:1"
       d="M 4,6 4.75,6.25 5,7 4,7"
       id="path9032" />
    <path
       style="fill:#000000;fill-opacity:1"
       d="M 4.75,6.25 5.25,5.75 6,6 6,7 5,7"
       id="path9034" />
    <path
       style="fill:#5fbc50;fill-opacity:1"
       d="M 6,6 7,6 7,7 6,7"
       id="path9036" />
    <path
       style="fill:#51984d;fill-opacity:1"
       d="M 7,6 8,6 8,7 7,7"
       id="path9038" />
    <path
       style="fill:#67d755;fill-opacity:1"
       d="M 0,7 1,7 1,8 0,8"
       id="path9040" />
    <path
       style="fill:#82de70;fill-opacity:1"
       d="M 1,7 2,7 2,8 1,8"
       id="path9042" />
    <path
       style="fill:#173a14;fill-opacity:1"
       d="M 2,7 3,7 3,8 2,8"
       id="path9044" />
    <path
       style="fill:#93d284;fill-opacity:1"
       d="M 3,7 4,7 4,8 3,8"
       id="path9046" />
    <path
       style="fill:#aed0a8;fill-opacity:1"
       d="M 4,7 5,7 5,8 4,8"
       id="path9048" />
    <path
       style="fill:#1d4c16;fill-opacity:1"
       d="M 5,7 6,7 6,8 5,8"
       id="path9050" />
    <path
       style="fill:#3b8e37;fill-opacity:1"
       d="M 6,7 7,7 7,8 6,8"
       id="path9052" />
    <path
       style="fill:#68cf57;fill-opacity:1"
       d="M 7,7 8,7 8,8 7,8"
       id="path9054" />
  </g>
</svg>
